<?xml version="1.0" encoding="UTF-8" standalone="no"?>
<!-- Created with Inkscape (http://www.inkscape.org/) -->

<svg
   width="500"
   height="500"
   viewBox="0 0 132.29166 132.29167"
   version="1.1"
   id="svg5"
   xml:space="preserve"
   inkscape:export-filename="logoShifu-full-bg.png"
   inkscape:export-xdpi="96"
   inkscape:export-ydpi="96"
   inkscape:version="1.2.1 (9c6d41e410, 2022-07-14)"
   sodipodi:docname="logo-sm.svg"
   xmlns:inkscape="http://www.inkscape.org/namespaces/inkscape"
   xmlns:sodipodi="http://sodipodi.sourceforge.net/DTD/sodipodi-0.dtd"
   xmlns:xlink="http://www.w3.org/1999/xlink"
   xmlns="http://www.w3.org/2000/svg"
   xmlns:svg="http://www.w3.org/2000/svg"><sodipodi:namedview
     id="namedview7"
     pagecolor="#505050"
     bordercolor="#eeeeee"
     borderopacity="1"
     inkscape:showpageshadow="0"
     inkscape:pageopacity="0"
     inkscape:pagecheckerboard="0"
     inkscape:deskcolor="#505050"
     inkscape:document-units="px"
     showgrid="false"
     inkscape:zoom="1.0544998"
     inkscape:cx="393.07736"
     inkscape:cy="332.85924"
     inkscape:window-width="1920"
     inkscape:window-height="1017"
     inkscape:window-x="-8"
     inkscape:window-y="109"
     inkscape:window-maximized="1"
     inkscape:current-layer="layer1" /><defs
     id="defs2"><linearGradient
       inkscape:collect="always"
       id="linearGradient3231"><stop
         style="stop-color:#6366f1;stop-opacity:1;"
         offset="0"
         id="stop3227" /><stop
         style="stop-color:#3bbdf8;stop-opacity:1;"
         offset="1"
         id="stop3229" /></linearGradient><linearGradient
       inkscape:collect="always"
       id="linearGradient3211"><stop
         style="stop-color:#000000;stop-opacity:1;"
         offset="0"
         id="stop3207" /><stop
         style="stop-color:#000000;stop-opacity:0;"
         offset="1"
         id="stop3209" /></linearGradient><linearGradient
       inkscape:collect="always"
       xlink:href="#linearGradient3211"
       id="linearGradient3213"
       x1="0.57179862"
       y1="64.085938"
       x2="144.74771"
       y2="64.085938"
       gradientUnits="userSpaceOnUse" /><linearGradient
       inkscape:collect="always"
       xlink:href="#linearGradient3231"
       id="linearGradient3241"
       x1="36.652"
       y1="255.989"
       x2="475.32599"
       y2="255.989"
       gradientUnits="userSpaceOnUse" /><linearGradient
       inkscape:collect="always"
       xlink:href="#linearGradient3231"
       id="linearGradient3249"
       x1="421.48499"
       y1="430.10724"
       x2="438.72925"
       y2="430.10724"
       gradientUnits="userSpaceOnUse" /><linearGradient
       inkscape:collect="always"
       xlink:href="#linearGradient3231"
       id="linearGradient3251"
       x1="421.517"
       y1="448.43149"
       x2="475.349"
       y2="448.43149"
       gradientUnits="userSpaceOnUse" /><linearGradient
       inkscape:collect="always"
       xlink:href="#linearGradient3231"
       id="linearGradient3253"
       x1="421.517"
       y1="466.75751"
       x2="512"
       y2="466.75751"
       gradientUnits="userSpaceOnUse" /><linearGradient
       inkscape:collect="always"
       xlink:href="#linearGradient3231"
       id="linearGradient3255"
       x1="0"
       y1="45.241501"
       x2="90.484001"
       y2="45.241501"
       gradientUnits="userSpaceOnUse" /><linearGradient
       inkscape:collect="always"
       xlink:href="#linearGradient3231"
       id="linearGradient3257"
       x1="36.652"
       y1="63.568001"
       x2="90.484001"
       y2="63.568001"
       gradientUnits="userSpaceOnUse" /><linearGradient
       inkscape:collect="always"
       xlink:href="#linearGradient3231"
       id="linearGradient3259"
       x1="73.271751"
       y1="81.894379"
       x2="90.516998"
       y2="81.894379"
       gradientUnits="userSpaceOnUse" /><linearGradient
       inkscape:collect="always"
       xlink:href="#linearGradient3231"
       id="linearGradient3267"
       x1="183.25604"
       y1="123.1253"
       x2="218.76695"
       y2="123.1253"
       gradientUnits="userSpaceOnUse" /><linearGradient
       inkscape:collect="always"
       xlink:href="#linearGradient3231"
       id="linearGradient3269"
       x1="339.02802"
       y1="113.9635"
       x2="356.20801"
       y2="113.9635"
       gradientUnits="userSpaceOnUse" /><linearGradient
       inkscape:collect="always"
       xlink:href="#linearGradient3231"
       id="linearGradient4337"
       x1="204.24567"
       y1="177.82503"
       x2="525.45844"
       y2="177.82503"
       gradientUnits="userSpaceOnUse" /></defs><g
     inkscape:label="Capa 1"
     inkscape:groupmode="layer"
     id="layer1"><g
       id="g437"
       transform="matrix(0.98018517,0,0,0.98018517,-128.62631,1.1058015)"><g
         id="g497"
         transform="matrix(0.25626679,0,0,0.25626679,133.10537,0.75067082)"><circle
           style="fill:#6366f1;fill-opacity:1"
           cx="255.989"
           cy="255.989"
           r="210.74699"
           id="circle396" /><path
           style="fill:#3730a3;fill-opacity:1"
           d="m 357.728,401.33 c -116.392,0 -210.747,-94.355 -210.747,-210.747 0,-52.385 19.157,-100.268 50.79,-137.132 C 109.707,78.722 45.242,159.8 45.242,255.989 c 0,116.392 94.355,210.747 210.747,210.747 64.006,0 121.305,-28.572 159.957,-73.615 -18.499,5.307 -38.014,8.209 -58.218,8.209 z"
           id="path398" /><g
           id="g404">
	<path
   style="fill:#e4eaf6"
   d="m 459.445,201.011 h -25.034 c -2.845,0 -5.651,0.662 -8.196,1.935 l -4.943,2.473 c -5.881,2.94 -12.889,2.505 -18.36,-1.143 L 384.27,191.849 H 365.944 L 384.27,164.36 h 27.489 l 18.326,9.163 h 19.894 C 436.742,142.428 416.247,115.171 390.623,93.868 l -12.83,12.832 c -1.719,1.718 -2.685,4.049 -2.685,6.479 v 15.439 c 0,5.285 -2.099,10.354 -5.837,14.09 -2.188,2.188 -4.854,3.836 -7.79,4.814 l -16.76,5.586 c -3.743,1.247 -6.266,4.749 -6.266,8.693 v 30.047 l -15.248,22.872 c -2.007,3.01 -3.079,6.547 -3.079,10.165 v 16.391 c 0,3.618 1.072,7.155 3.079,10.165 l 9.808,14.711 c 3.399,5.098 9.121,8.161 15.248,8.161 h 22.798 c 7.889,0 14.891,5.048 17.385,12.53 l 4.045,12.136 c 0.623,1.868 0.94,3.826 0.94,5.796 v 24.516 l 21.62,64.86 c 32.166,-37 51.684,-85.287 51.684,-138.163 0,-19.026 -2.564,-37.445 -7.29,-54.977 z"
   id="path400" />
	<path
   style="fill:#e4eaf6"
   d="M 288.972,307.297 277,295.323 c -1.719,-1.718 -4.049,-2.684 -6.479,-2.684 H 255.99 l -33.967,-33.968 c -1.719,-1.718 -4.049,-2.684 -6.479,-2.684 h -42.02 l -9.163,27.489 v 18.326 c 0,5.768 2.716,11.199 7.33,14.661 l 21.99,16.493 c 4.615,3.461 7.33,8.893 7.33,14.661 v 49.428 c 0,3.618 1.072,7.155 3.079,10.165 l 15.248,22.873 h 9.163 v -27.489 l 27.489,-27.489 7.075,-21.224 c 1.247,-3.742 4.749,-6.265 8.692,-6.265 h 4.568 c 4.205,0 7.87,-2.862 8.89,-6.941 l 6.169,-24.678 c 0.779,-3.121 -0.137,-6.424 -2.412,-8.7 z"
   id="path402" />
</g><path
           style="fill:#c7cfe2"
           d="m 166.097,278.265 -1.738,5.213 v 18.326 c 0,5.768 2.716,11.199 7.33,14.661 l 21.99,16.493 c 4.615,3.461 7.33,8.893 7.33,14.661 v 49.428 c 0,3.618 1.072,7.155 3.079,10.165 l 15.248,22.873 h 9.163 v -27.489 l 27.458,-27.458 c -39.38,-21.764 -71.019,-55.766 -89.86,-96.873 z"
           id="path406" /><path
           style="fill:#e4eaf6"
           d="m 197.68,92.722 -14.995,7.498 v -9.163 h -19.898 c -4.86,0 -9.521,1.931 -12.958,5.367 L 136.87,109.383 121.355,93.868 C 97.367,113.812 77.91,138.993 64.66,167.639 l 13.056,39.169 c 2.495,7.483 9.496,12.53 17.385,12.53 h 5.117 l 9.163,18.326 27.489,5.498 V 228.5 c 0,-10.122 8.205,-18.326 18.326,-18.326 h 14.531 c 2.43,0 4.76,-0.966 6.479,-2.684 l 61.456,-61.457 h 18.326 v -18.326 l -15.885,-10.591 c -4.457,-2.971 -3.27,-9.818 1.925,-11.118 l 23.123,-5.779 v -9.163 h -60.416 c -2.449,0 -4.865,0.571 -7.055,1.666 z"
           id="path408" /><path
           style="fill:#c7cfe2"
           d="M 136.871,243.16 V 228.5 c 0,-7.578 4.602,-14.079 11.16,-16.869 -0.687,-6.924 -1.049,-13.943 -1.049,-21.047 0,-36.051 9.243,-69.866 25.212,-99.527 h -9.407 c -4.86,0 -9.521,1.931 -12.958,5.367 L 136.87,109.383 121.436,93.949 c -3.482,2.892 -6.91,5.846 -10.198,8.953 -0.481,0.455 -0.939,0.932 -1.416,1.392 -3.178,3.062 -6.248,6.237 -9.233,9.492 -0.788,0.861 -1.584,1.713 -2.357,2.587 -3.273,3.694 -6.446,7.48 -9.457,11.399 -0.499,0.648 -0.953,1.331 -1.443,1.986 -2.429,3.237 -4.751,6.556 -6.995,9.934 -0.98,1.481 -1.945,2.976 -2.89,4.483 -1.865,2.969 -3.64,5.997 -5.357,9.062 -0.834,1.49 -1.697,2.958 -2.497,4.472 -1.738,3.286 -3.331,6.658 -4.896,10.044 l 13.018,39.055 c 2.495,7.483 9.496,12.53 17.385,12.53 h 5.117 l 9.163,18.326 z"
           id="path410" /><path
           d="m 255.989,36.652 c -120.942,0 -219.337,98.395 -219.337,219.337 0,120.942 98.395,219.337 219.337,219.337 120.942,0 219.337,-98.395 219.337,-219.337 0,-120.942 -98.395,-219.337 -219.337,-219.337 z m 155.769,148.622 c 4.23,0 7.738,-3.06 8.45,-7.085 l 3.133,1.567 c 3.086,1.543 6.539,2.358 9.988,2.358 h 10.839 c 1.335,3.391 2.574,6.831 3.729,10.308 H 434.41 c -4.157,0 -8.32,0.983 -12.037,2.84 l -4.945,2.473 c -3.118,1.558 -6.854,1.325 -9.755,-0.607 l -18.64,-12.427 c -1.411,-0.94 -3.07,-1.443 -4.765,-1.443 h -2.275 l 6.362,-9.544 c 0.32,-0.479 0.853,-0.764 1.429,-0.764 h 13.381 v 3.734 c 0.003,4.744 3.848,8.59 8.593,8.59 z m -9.839,-69.039 -5.399,5.399 c -3.355,3.355 -3.355,8.794 0,12.148 1.677,1.677 3.876,2.516 6.074,2.516 2.198,0 4.397,-0.838 6.074,-2.516 l 4.618,-4.618 c 8.912,11.031 16.691,23.011 23.155,35.769 h -3.114 c -0.796,0 -1.593,-0.189 -2.306,-0.544 l -13.248,-6.625 c -2.61,-1.305 -5.532,-1.994 -8.45,-1.994 h -19.539 c -6.333,0 -12.212,3.146 -15.725,8.415 l -12.712,19.074 h -8.001 c -3.474,0 -6.299,-2.826 -6.299,-6.299 v -15.158 c 0,-0.246 0.157,-0.465 0.392,-0.543 l 16.761,-5.587 c 4.178,-1.393 8.032,-3.775 11.147,-6.889 5.387,-5.387 8.352,-12.547 8.352,-20.164 V 113.18 c 0,-0.15 0.061,-0.298 0.167,-0.405 l 6.479,-6.479 c 0.216,-0.216 0.418,-0.442 0.607,-0.676 3.785,3.4 7.446,6.939 10.967,10.615 z M 121.027,105.618 c 0.189,0.233 0.389,0.458 0.607,0.675 l 9.163,9.163 c 1.61,1.612 3.796,2.516 6.074,2.516 2.278,0 4.463,-0.905 6.074,-2.516 l 12.957,-12.959 c 1.838,-1.838 4.284,-2.851 6.885,-2.851 h 11.308 v 0.573 c 0,2.977 1.542,5.742 4.074,7.307 2.532,1.566 5.695,1.708 8.358,0.376 l 14.993,-7.498 c 0.993,-0.496 2.104,-0.758 3.215,-0.758 h 30.645 c -3.351,2.185 -5.68,5.67 -6.399,9.819 -1.011,5.84 1.424,11.511 6.356,14.799 l 11.806,7.871 c 0.159,0.107 0.254,0.284 0.254,0.476 v 4.26 c 0,0.316 -0.257,0.573 -0.573,0.573 h -3.945 c -5.66,0 -10.981,2.204 -14.984,6.206 l -57.766,57.766 c -0.107,0.107 -0.254,0.167 -0.405,0.167 h -14.528 c -14.842,0 -26.916,12.074 -26.916,26.916 v 4.183 l -9.523,-1.905 c -2.27,-0.454 -4.165,-1.902 -5.2,-3.971 l -5.656,-11.31 c -1.455,-2.911 -4.429,-4.75 -7.683,-4.75 h -5.117 c -4.197,0 -7.909,-2.676 -9.235,-6.657 L 73.905,168.206 c 11.538,-23.835 27.627,-45.071 47.122,-62.588 z m 134.962,352.527 c -111.469,0 -202.156,-90.688 -202.156,-202.157 0,-22.079 3.57,-43.337 10.142,-63.242 l 5.592,16.776 c 3.649,10.949 13.818,18.324 25.342,18.404 l 3.281,6.563 c 3.422,6.846 9.69,11.632 17.196,13.135 l 32.759,6.551 c 1.842,0.368 3.517,1.264 4.845,2.593 2.665,2.666 5.797,4.698 9.21,6.02 l -5.99,17.972 c -0.292,0.876 -0.441,1.792 -0.441,2.717 v 18.326 c 0,8.426 4.025,16.477 10.766,21.533 l 21.991,16.493 c 2.438,1.828 3.894,4.74 3.894,7.787 v 49.429 c 0,5.333 1.563,10.496 4.521,14.931 l 13.208,19.813 c 2.875,4.311 7.683,6.885 12.865,6.885 h 3.194 c 5.999,0 10.881,-4.882 10.881,-10.881 v -15.709 c 0,-3.824 1.489,-7.42 4.193,-10.124 l 16.956,-16.956 c 3.44,-3.44 6.07,-7.697 7.61,-12.313 l 5.365,-16.093 c 0.078,-0.235 0.297,-0.392 0.543,-0.392 h 4.568 c 8.162,0 15.245,-5.53 17.223,-13.448 l 6.17,-24.679 c 1.503,-6.014 -0.286,-12.474 -4.671,-16.857 l -11.974,-11.974 c -3.352,-3.352 -7.811,-5.2 -12.553,-5.2 h -10.973 l -31.452,-31.452 c -3.352,-3.352 -7.811,-5.2 -12.553,-5.2 h -41.819 c -0.134,-0.003 -0.267,-0.003 -0.401,0 h -1.476 c -2.532,0 -4.915,-0.986 -6.705,-2.778 -3.734,-3.735 -8.446,-6.256 -13.625,-7.291 l -6.053,-1.211 V 228.5 c 0,-5.368 4.367,-9.736 9.736,-9.736 h 9.736 v 0.573 c 0,4.744 3.846,8.59 8.59,8.59 4.744,0 8.59,-3.846 8.59,-8.59 v -5.621 c 0.054,-0.053 0.113,-0.099 0.167,-0.151 l 57.766,-57.766 c 0.757,-0.757 1.764,-1.174 2.835,-1.174 h 3.945 c 9.789,0 17.753,-7.964 17.753,-17.753 v -4.26 c 0,-5.95 -2.956,-11.472 -7.905,-14.771 l -7.251,-4.835 13.916,-3.48 c 6.125,-1.53 10.403,-7.008 10.403,-13.327 0,-7.572 -6.161,-13.733 -13.733,-13.733 h -55.273 c -3.764,0 -7.533,0.889 -10.899,2.572 l -5.676,2.838 c -2.625,-3.295 -6.671,-5.411 -11.202,-5.411 h -14.172 c -7.189,0 -13.949,2.799 -19.033,7.884 l -6.884,6.884 -2.568,-2.567 c 33.878,-25.617 76.036,-40.834 121.686,-40.834 45.65,0 87.808,15.217 121.684,40.834 l -5.958,5.958 c -3.354,3.354 -5.2,7.811 -5.2,12.553 v 15.439 c 0,3.028 -1.18,5.875 -3.32,8.016 -1.238,1.238 -2.769,2.184 -4.431,2.739 l -16.761,5.587 c -7.26,2.42 -12.14,9.188 -12.14,16.843 v 15.157 c 0,4.328 1.198,8.374 3.249,11.859 -3.485,2.346 -6.541,5.366 -8.946,8.976 l -8.108,12.16 c -2.958,4.436 -4.521,9.599 -4.521,14.931 v 16.391 c 0,5.332 1.563,10.495 4.521,14.931 l 9.808,14.711 c 5.004,7.506 13.376,11.986 22.395,11.986 h 22.798 c 4.198,0 7.909,2.674 9.235,6.657 l 2.048,6.141 c 1.657,4.972 2.498,10.151 2.498,15.394 v 6.485 c 0,8.567 1.193,17.089 3.548,25.33 l 14.73,51.559 c -36.891,39.174 -89.199,63.676 -147.129,63.676 z m -57.154,-132.06 -21.991,-16.493 c -2.438,-1.829 -3.894,-4.741 -3.894,-7.788 v -16.932 l 6.765,-20.292 h 35.827 c 0.151,0 0.299,0.061 0.405,0.167 l 33.968,33.968 c 1.61,1.612 3.796,2.516 6.074,2.516 h 14.53 c 0.151,0 0.299,0.061 0.405,0.167 l 11.974,11.974 c 0.142,0.142 0.199,0.35 0.151,0.544 l -6.17,24.678 c -0.064,0.255 -0.292,0.433 -0.555,0.433 h -4.568 c -7.653,0 -14.421,4.878 -16.843,12.14 l -5.365,16.094 c -0.699,2.098 -1.896,4.033 -3.459,5.596 l -16.956,16.956 c -5.949,5.949 -9.225,13.859 -9.225,22.272 v 3.373 l -8.674,-13.01 c -1.07,-1.603 -1.634,-3.472 -1.634,-5.4 V 347.62 c 0.001,-8.43 -4.023,-16.481 -10.765,-21.535 z m 217.659,52.654 -11.585,-40.547 c -1.915,-6.705 -2.887,-13.64 -2.887,-20.611 v -6.485 c 0,-7.092 -1.137,-14.099 -3.379,-20.827 l -2.048,-6.141 c -3.669,-11.007 -13.93,-18.404 -25.534,-18.404 h -22.798 c -3.262,0 -6.29,-1.621 -8.1,-4.335 l -9.808,-14.712 c -1.07,-1.605 -1.636,-3.472 -1.636,-5.4 v -16.391 c 0,-1.929 0.566,-3.796 1.636,-5.4 l 8.108,-12.161 c 2.874,-4.311 7.683,-6.885 12.865,-6.885 h 30.341 l 16.475,10.983 c 8.016,5.344 18.351,5.988 26.968,1.679 l 4.944,-2.473 c 1.345,-0.672 2.85,-1.027 4.354,-1.027 h 18.357 c 3.512,14.901 5.379,30.43 5.379,46.387 -0.001,46.13 -15.545,88.693 -41.652,122.75 z"
           id="path412"
           style="fill:url(#linearGradient3241);fill-opacity:1;stroke:#000000;stroke-width:4.12981;stroke-dasharray:none;stroke-opacity:1" /><path
           d="m 75.884,88.096 c 1.665,1.614 3.837,2.42 6.01,2.42 2.173,0 4.343,-0.807 6.01,-2.42 0.065,-0.063 0.129,-0.127 0.192,-0.192 3.228,-3.331 3.228,-8.688 0,-12.018 -0.031,-0.033 -0.063,-0.065 -0.095,-0.097 -3.355,-3.355 -8.858,-3.355 -12.213,0 -3.355,3.355 -3.355,8.858 0,12.213 0.03,0.031 0.064,0.063 0.096,0.094 z"
           id="path414"
           style="fill:url(#linearGradient3259);fill-opacity:1;stroke:#000000;stroke-width:4.12981;stroke-dasharray:none;stroke-opacity:1" /><path
           d="m 90.484,45.242 c 0,-4.744 -3.846,-8.59 -8.59,-8.59 -24.946,0 -45.242,20.296 -45.242,45.242 0,4.744 3.846,8.59 8.59,8.59 4.744,0 8.59,-3.846 8.59,-8.59 0,-15.473 12.589,-28.061 28.061,-28.061 4.745,-10e-4 8.591,-3.847 8.591,-8.591 z"
           id="path416"
           style="fill:url(#linearGradient3257);fill-opacity:1;stroke:#000000;stroke-width:4.12981;stroke-dasharray:none;stroke-opacity:1" /><path
           d="M 90.484,8.59 C 90.484,3.846 86.638,0 81.894,0 36.738,0 0,36.738 0,81.893 c 0,4.744 3.846,8.59 8.59,8.59 4.744,0 8.59,-3.846 8.59,-8.59 0,-35.683 29.03,-64.713 64.713,-64.713 4.745,0 8.591,-3.846 8.591,-8.59 z"
           id="path418"
           style="fill:url(#linearGradient3255);fill-opacity:1;stroke:#000000;stroke-width:4.12981;stroke-dasharray:none;stroke-opacity:1" /><path
           d="m 423.999,436.213 c 1.677,1.677 3.892,2.516 6.107,2.516 2.215,0 4.429,-0.838 6.107,-2.516 3.355,-3.355 3.355,-8.858 0,-12.213 -0.032,-0.032 -0.064,-0.064 -0.097,-0.095 -3.331,-3.226 -8.688,-3.226 -12.018,0 -0.065,0.063 -0.129,0.127 -0.192,0.192 -3.228,3.331 -3.228,8.688 0,12.018 0.029,0.033 0.061,0.065 0.093,0.098 z"
           id="path420"
           style="fill:url(#linearGradient3249);fill-opacity:1;stroke:#000000;stroke-width:4.12981;stroke-dasharray:none;stroke-opacity:1" /><path
           d="m 466.758,421.516 c -4.744,0 -8.59,3.846 -8.59,8.59 0,15.473 -12.589,28.061 -28.061,28.061 -4.744,0 -8.59,3.846 -8.59,8.59 0,4.744 3.846,8.59 8.59,8.59 24.946,0 45.242,-20.296 45.242,-45.242 -10e-4,-4.744 -3.847,-8.589 -8.591,-8.589 z"
           id="path422"
           style="fill:url(#linearGradient3251);fill-opacity:1;stroke:#000000;stroke-width:4.12981;stroke-dasharray:none;stroke-opacity:1" /><path
           d="m 503.41,421.516 c -4.744,0 -8.59,3.846 -8.59,8.59 0,35.683 -29.03,64.713 -64.713,64.713 -4.744,0 -8.59,3.846 -8.59,8.59 0,4.744 3.846,8.59 8.59,8.59 C 475.262,512 512,475.262 512,430.107 c 0,-4.746 -3.846,-8.591 -8.59,-8.591 z"
           id="path424"
           style="fill:url(#linearGradient3253);fill-opacity:1;stroke:#000000;stroke-width:4.12981;stroke-dasharray:none;stroke-opacity:1" /><path
           d="m 191.855,136.299 c 1.291,0 2.601,-0.292 3.835,-0.908 l 18.326,-9.163 c 4.244,-2.121 5.964,-7.281 3.842,-11.525 -2.121,-4.244 -7.281,-5.965 -11.525,-3.842 l -18.326,9.163 c -4.244,2.121 -5.964,7.281 -3.842,11.525 1.505,3.01 4.538,4.75 7.69,4.75 z"
           id="path426"
           style="fill:url(#linearGradient3267);fill-opacity:1" /><path
           d="m 347.618,127.135 c 4.744,0 8.59,-3.846 8.59,-8.59 v -9.163 c 0,-4.744 -3.846,-8.59 -8.59,-8.59 -4.744,0 -8.59,3.846 -8.59,8.59 v 9.163 c -0.001,4.744 3.844,8.59 8.59,8.59 z"
           id="path428"
           style="fill:url(#linearGradient3269);fill-opacity:1" /><g
           id="g430">
</g><g
           id="g432">
</g><g
           id="g434">
</g><g
           id="g436">
</g><g
           id="g438">
</g><g
           id="g440">
</g><g
           id="g442">
</g><g
           id="g444">
</g><g
           id="g446">
</g><g
           id="g448">
</g><g
           id="g450">
</g><g
           id="g452">
</g><g
           id="g454">
</g><g
           id="g456">
</g><g
           id="g458">
</g></g><g
         id="g4053"
         transform="matrix(0.26458333,0,0,0.26458333,122.9261,5.377856)"><g
           id="g3999">
	<g
   id="path3997"><path
     style="color:#000000;fill:#6366f1;stroke-width:10"
     d="M 511.37198,117.75422 347.16154,281.95315 c -12.15999,12.16228 -31.88539,12.16228 -44.0569,0 l -84.76656,-84.77271 c -12.16459,-12.16229 -12.16459,-31.89 0,-44.05459 12.1669,-12.16689 31.89077,-12.16689 44.05229,-0.005 l 62.74925,62.75002 142.17316,-142.173935 c 12.1669,-12.1669 31.89231,-12.15768 44.05459,0 12.16229,12.16459 12.16229,31.885395 0.005,44.056895 z"
     id="path4462" /><path
     style="color:#000000;fill:url(#linearGradient4337);stroke:#000000;stroke-width:4;stroke-dasharray:none;stroke-opacity:1"
     d="m 489.3418,59.605469 c -9.2623,-0.0012 -18.52524,3.517429 -25.56446,10.55664 L 325.14062,208.80078 265.92578,149.58594 c -14.07282,-14.07325 -37.04566,-14.07347 -51.12305,0.004 -14.0758,14.07581 -14.07634,37.05327 0,51.12696 l 84.76758,84.77343 c 14.08214,14.07146 37.05543,14.07223 51.12696,-0.002 l 164.21093,-164.19922 0.002,-0.002 c 14.06563,-14.08208 14.06484,-37.049683 -0.008,-51.125001 v -0.002 c -7.03641,-7.033843 -16.29811,-10.553477 -25.5604,-10.55464 z m 0,9.939453 c 6.68269,0.0011 13.36452,2.563722 18.49023,7.6875 10.2519,10.253838 10.25087,26.727378 0.002,36.988278 L 343.625,278.41797 c -10.24777,10.2497 -26.72338,10.25109 -36.98438,0 l -0.002,-0.002 -84.76562,-84.77149 c -10.25281,-10.25087 -10.25335,-26.72907 0,-36.98242 10.25639,-10.25639 26.73222,-10.25637 36.98242,-0.006 l 66.2832,66.28516 145.70899,-145.708988 c 5.12767,-5.127676 11.81145,-7.688642 18.49414,-7.6875 z"
     id="path4464" /></g>
</g><g
           id="g4001">
</g><g
           id="g4003">
</g><g
           id="g4005">
</g><g
           id="g4007">
</g><g
           id="g4009">
</g><g
           id="g4011">
</g><g
           id="g4013">
</g><g
           id="g4015">
</g><g
           id="g4017">
</g><g
           id="g4019">
</g><g
           id="g4021">
</g><g
           id="g4023">
</g><g
           id="g4025">
</g><g
           id="g4027">
</g><g
           id="g4029">
</g></g></g></g></svg>
